<svg width="18" height="19" viewBox="0 0 18 19" fill="none" xmlns="http://www.w3.org/2000/svg">
<path fill-rule="evenodd" clip-rule="evenodd" d="M8.45983 0.44043C13.1245 0.44043 16.9188 4.31253 16.9188 9.07286C16.9188 11.3188 16.0742 13.3672 14.6921 14.9045L17.4117 17.674C17.6662 17.9337 17.667 18.3539 17.4125 18.6137C17.2857 18.7449 17.1181 18.8096 16.9513 18.8096C16.7854 18.8096 16.6186 18.7449 16.4909 18.6154L13.7385 15.8145C12.2907 16.9978 10.4548 17.7062 8.45983 17.7062C3.79515 17.7062 0 13.8332 0 9.07286C0 4.31253 3.79515 0.44043 8.45983 0.44043ZM8.45983 1.77013C4.51353 1.77013 1.30298 5.04563 1.30298 9.07286C1.30298 13.1001 4.51353 16.3765 8.45983 16.3765C12.4053 16.3765 15.6158 13.1001 15.6158 9.07286C15.6158 5.04563 12.4053 1.77013 8.45983 1.77013Z" fill="#AAAAAA"/>
</svg>
